<svg xmlns="http://www.w3.org/2000/svg" xmlns:xlink="http://www.w3.org/1999/xlink" version="1.1" width="75" height="75" viewBox="0 0 500 500" xml:space="preserve">
<desc>Created with Fabric.js 3.5.0</desc>
<defs>
</defs>
<rect x="0" y="0" width="100%" height="100%" fill="rgba(0,255,185,0)"/>
<g transform="matrix(1 0 0 1 249.5 285.1663)" id="61857" clip-path="url(#CLIPPATH_1)">
<clipPath id="CLIPPATH_1">
	<rect transform="matrix(1 0 0 1 -0.0001 -0.0005)" id="clip0_302_78" x="-79.5" y="-79.5" rx="0" ry="0" width="159" height="159"/>
</clipPath>
<path style="stroke: none; stroke-width: 0; stroke-dasharray: none; stroke-linecap: butt; stroke-dashoffset: 0; stroke-linejoin: miter; stroke-miterlimit: 4; is-custom-font: none; font-file-url: none; fill: rgb(244,244,250); fill-rule: nonzero; opacity: 1;" vector-effect="non-scaling-stroke" transform=" translate(-79.5001, -79.5005)" d="M 158.004 77.1235 L 81.8028 0.990297 C 80.4947 -0.256857 78.4373 -0.256857 77.1292 0.990297 L 0.996304 77.0555 C 0.980111 77.0714 0.964236 77.0873 0.94836 77.1035 C -0.334353 78.4129 -0.313081 80.5141 0.996304 81.7968 L 77.1971 157.93 C 77.8016 158.558 78.6287 158.923 79.5 158.946 C 80.3836 158.951 81.2345 158.611 81.8708 157.998 L 158.004 81.8644 C 158.02 81.8486 158.036 81.8327 158.052 81.8165 C 159.335 80.5078 159.313 78.4062 158.004 77.1235 Z" stroke-linecap="round"/>
</g>
<g transform="matrix(2.5549 0 0 0.8425 249.4999 237.4864)" id="950073" clip-path="url(#CLIPPATH_2)">
<clipPath id="CLIPPATH_2">
	<rect transform="matrix(1 0 0 1 0.0001 0.0002)" id="clip0_302_100" x="-79" y="-79" rx="0" ry="0" width="158" height="158"/>
</clipPath>
<path style="stroke: none; stroke-width: 0; stroke-dasharray: none; stroke-linecap: butt; stroke-dashoffset: 0; stroke-linejoin: miter; stroke-miterlimit: 4; is-custom-font: none; font-file-url: none; fill: rgb(244,244,250); fill-rule: nonzero; opacity: 1;" vector-effect="non-scaling-stroke" transform=" translate(-78.9999, -78.9998)" d="M 154.685 0.000367219 H 3.31409 C 1.48378 0.000367219 0 1.48415 0 3.31478 V 154.686 C 0 156.516 1.48378 158 3.31409 158 H 154.685 C 156.515 158 157.999 156.516 157.999 154.686 V 3.31478 C 158 3.26912 158 3.22347 157.999 3.17813 C 157.962 1.38523 156.478 -0.0373614 154.685 0.000367219 Z" stroke-linecap="round"/>
</g>
<g transform="matrix(1 0 0 1 249.5 239.6207)" style="" id="181001">
		
<path xml:space="preserve" font-family="Lato" font-size="60" font-style="normal" font-weight="bold" style="stroke: none; stroke-width: 0; stroke-dasharray: none; stroke-linecap: butt; stroke-dashoffset: 0; stroke-linejoin: miter; stroke-miterlimit: 4; is-custom-font: none; font-file-url: none; fill: rgb(117,104,168); fill-rule: nonzero; opacity: 1; white-space: pre;" d="M-105.78 8.62L-105.78 8.62Q-105.12 8.62-104.64 9.13L-104.64 9.13L-101.46 12.58Q-104.10 15.85-107.95 17.59Q-111.81 19.33-117.21 19.33L-117.21 19.33Q-122.04 19.33-125.89 17.68Q-129.75 16.03-132.48 13.09Q-135.21 10.15-136.66 6.07Q-138.12 1.99-138.12-2.84L-138.12-2.84Q-138.12-7.73-136.50-11.80Q-134.88-15.86-131.94-18.80Q-129-21.74-124.90-23.38Q-120.81-25.01-115.86-25.01L-115.86-25.01Q-111.03-25.01-107.41-23.47Q-103.80-21.92-101.22-19.37L-101.22-19.37L-103.92-15.62Q-104.16-15.26-104.53-14.99Q-104.91-14.72-105.57-14.72L-105.57-14.72Q-106.26-14.72-106.98-15.26Q-107.70-15.80-108.81-16.43Q-109.92-17.06-111.61-17.60Q-113.31-18.14-115.92-18.14L-115.92-18.14Q-118.98-18.14-121.54-17.08Q-124.11-16.01-125.95-14.03Q-127.80-12.05-128.83-9.22Q-129.87-6.38-129.87-2.84L-129.87-2.84Q-129.87 0.82-128.83 3.67Q-127.80 6.52-126.03 8.47Q-124.26 10.42-121.86 11.45Q-119.46 12.49-116.70 12.49L-116.70 12.49Q-115.05 12.49-113.71 12.31Q-112.38 12.13-111.25 11.74Q-110.13 11.35-109.12 10.73Q-108.12 10.12-107.13 9.22L-107.13 9.22Q-106.83 8.95-106.50 8.78Q-106.17 8.62-105.78 8.62ZM-53.76-2.84L-53.76-2.84Q-53.76 1.93-55.35 5.99Q-56.94 10.06-59.82 13.03Q-62.70 16.00-66.75 17.66Q-70.80 19.33-75.72 19.33L-75.72 19.33Q-80.64 19.33-84.70 17.66Q-88.77 16.00-91.67 13.03Q-94.56 10.06-96.15 5.99Q-97.74 1.93-97.74-2.84L-97.74-2.84Q-97.74-7.61-96.15-11.68Q-94.56-15.74-91.67-18.71Q-88.77-21.68-84.70-23.35Q-80.64-25.01-75.72-25.01L-75.72-25.01Q-70.80-25.01-66.75-23.33Q-62.70-21.65-59.82-18.70Q-56.94-15.74-55.35-11.68Q-53.76-7.61-53.76-2.84ZM-62.04-2.84L-62.04-2.84Q-62.04-6.41-62.98-9.25Q-63.93-12.08-65.70-14.06Q-67.47-16.04-70.00-17.09Q-72.54-18.14-75.72-18.14L-75.72-18.14Q-78.90-18.14-81.45-17.09Q-84-16.04-85.78-14.06Q-87.57-12.08-88.53-9.25Q-89.49-6.41-89.49-2.84L-89.49-2.84Q-89.49 0.73-88.53 3.56Q-87.57 6.40-85.78 8.36Q-84 10.33-81.45 11.38Q-78.90 12.43-75.72 12.43L-75.72 12.43Q-72.54 12.43-70.00 11.38Q-67.47 10.33-65.70 8.36Q-63.93 6.40-62.98 3.56Q-62.04 0.73-62.04-2.84ZM-33 3.58L-39.06 3.58L-39.06 18.85L-47.13 18.85L-47.13-24.53L-33-24.53Q-28.65-24.53-25.47-23.51Q-22.29-22.49-20.22-20.66Q-18.15-18.83-17.16-16.28Q-16.17-13.73-16.17-10.70L-16.17-10.70Q-16.17-7.55-17.22-4.93Q-18.27-2.30-20.37-0.41Q-22.47 1.48-25.62 2.53Q-28.77 3.58-33 3.58L-33 3.58ZM-39.06-18.29L-39.06-2.72L-33-2.72Q-30.78-2.72-29.13-3.28Q-27.48-3.83-26.40-4.87Q-25.32-5.90-24.78-7.39Q-24.24-8.87-24.24-10.70L-24.24-10.70Q-24.24-12.44-24.78-13.85Q-25.32-15.26-26.40-16.25Q-27.48-17.24-29.13-17.77Q-30.78-18.29-33-18.29L-33-18.29L-39.06-18.29ZM-0.81-24.53L-0.81 18.85L-8.91 18.85L-8.91-24.53L-0.81-24.53ZM30.03-24.53L47.07 18.85L40.83 18.85Q39.78 18.85 39.11 18.32Q38.43 17.80 38.13 17.02L38.13 17.02L34.89 8.17L16.92 8.17L13.68 17.02Q13.44 17.71 12.73 18.28Q12.03 18.85 11.01 18.85L11.01 18.85L4.74 18.85L21.78-24.53L30.03-24.53ZM24.27-11.90L18.99 2.47L32.82 2.47L27.54-11.96Q27.18-12.92 26.74-14.23Q26.31-15.53 25.89-17.06L25.89-17.06Q25.47-15.53 25.06-14.21Q24.66-12.89 24.27-11.90L24.27-11.90ZM90.06-2.84L90.06-2.84Q90.06 1.93 88.47 5.92Q86.88 9.91 84 12.79Q81.12 15.67 77.07 17.26Q73.02 18.85 68.10 18.85L68.10 18.85L51.54 18.85L51.54-24.53L68.10-24.53Q73.02-24.53 77.07-22.93Q81.12-21.32 84-18.46Q86.88-15.59 88.47-11.60Q90.06-7.61 90.06-2.84ZM81.81-2.84L81.81-2.84Q81.81-6.41 80.85-9.25Q79.89-12.08 78.12-14.05Q76.35-16.01 73.81-17.06Q71.28-18.11 68.10-18.11L68.10-18.11L59.67-18.11L59.67 12.43L68.10 12.43Q71.28 12.43 73.81 11.38Q76.35 10.33 78.12 8.36Q79.89 6.40 80.85 3.56Q81.81 0.73 81.81-2.84ZM138-2.84L138-2.84Q138 1.93 136.41 5.99Q134.82 10.06 131.94 13.03Q129.06 16.00 125.01 17.66Q120.96 19.33 116.04 19.33L116.04 19.33Q111.12 19.33 107.05 17.66Q102.99 16.00 100.09 13.03Q97.20 10.06 95.61 5.99Q94.02 1.93 94.02-2.84L94.02-2.84Q94.02-7.61 95.61-11.68Q97.20-15.74 100.09-18.71Q102.99-21.68 107.05-23.35Q111.12-25.01 116.04-25.01L116.04-25.01Q120.96-25.01 125.01-23.33Q129.06-21.65 131.94-18.70Q134.82-15.74 136.41-11.68Q138-7.61 138-2.84ZM129.72-2.84L129.72-2.84Q129.72-6.41 128.77-9.25Q127.83-12.08 126.06-14.06Q124.29-16.04 121.75-17.09Q119.22-18.14 116.04-18.14L116.04-18.14Q112.86-18.14 110.31-17.09Q107.76-16.04 105.97-14.06Q104.19-12.08 103.23-9.25Q102.27-6.41 102.27-2.84L102.27-2.84Q102.27 0.73 103.23 3.56Q104.19 6.40 105.97 8.36Q107.76 10.33 110.31 11.38Q112.86 12.43 116.04 12.43L116.04 12.43Q119.22 12.43 121.75 11.38Q124.29 10.33 126.06 8.36Q127.83 6.40 128.77 3.56Q129.72 0.73 129.72-2.84Z"/></g>
</svg>