<svg xmlns="http://www.w3.org/2000/svg" xmlns:xlink="http://www.w3.org/1999/xlink" version="1.1" width="100" height="100" viewBox="0 0 500 500" xml:space="preserve">
<desc>Created with Fabric.js 3.5.0</desc>
<defs>
</defs>
<rect x="0" y="0" width="100%" height="100%" fill="rgba(255,255,255,0)"/>
<g transform="matrix(1 0 0 1 250 285.6663)" id="318784" clip-path="url(#CLIPPATH_5)">
<clipPath id="CLIPPATH_5">
	<rect transform="matrix(1 0 0 1 -0.0001 -0.0005)" id="clip0_302_78" x="-79.5" y="-79.5" rx="0" ry="0" width="159" height="159"/>
</clipPath>
<path style="stroke: none; stroke-width: 1; stroke-dasharray: none; stroke-linecap: butt; stroke-dashoffset: 0; stroke-linejoin: miter; stroke-miterlimit: 4; is-custom-font: none; font-file-url: none; fill: rgb(133,22,55); fill-rule: nonzero; opacity: 1;" vector-effect="non-scaling-stroke" transform=" translate(-79.5001, -79.5005)" d="M 158.004 77.1235 L 81.8028 0.990297 C 80.4947 -0.256857 78.4373 -0.256857 77.1292 0.990297 L 0.996304 77.0555 C 0.980111 77.0714 0.964236 77.0873 0.94836 77.1035 C -0.334353 78.4129 -0.313081 80.5141 0.996304 81.7968 L 77.1971 157.93 C 77.8016 158.558 78.6287 158.923 79.5 158.946 C 80.3836 158.951 81.2345 158.611 81.8708 157.998 L 158.004 81.8644 C 158.02 81.8486 158.036 81.8327 158.052 81.8165 C 159.335 80.5078 159.313 78.4062 158.004 77.1235 Z" stroke-linecap="round"/>
</g>
<g transform="matrix(2.5549 0 0 0.8425 249.9999 237.9864)" id="848799" clip-path="url(#CLIPPATH_6)">
<clipPath id="CLIPPATH_6">
	<rect transform="matrix(1 0 0 1 0.0001 0.0002)" id="clip0_302_100" x="-79" y="-79" rx="0" ry="0" width="158" height="158"/>
</clipPath>
<path style="stroke: none; stroke-width: 1; stroke-dasharray: none; stroke-linecap: butt; stroke-dashoffset: 0; stroke-linejoin: miter; stroke-miterlimit: 4; is-custom-font: none; font-file-url: none; fill: rgb(133,22,55); fill-rule: nonzero; opacity: 1;" vector-effect="non-scaling-stroke" transform=" translate(-78.9999, -78.9998)" d="M 154.685 0.000367219 H 3.31409 C 1.48378 0.000367219 0 1.48415 0 3.31478 V 154.686 C 0 156.516 1.48378 158 3.31409 158 H 154.685 C 156.515 158 157.999 156.516 157.999 154.686 V 3.31478 C 158 3.26912 158 3.22347 157.999 3.17813 C 157.962 1.38523 156.478 -0.0373614 154.685 0.000367219 Z" stroke-linecap="round"/>
</g>
<g transform="matrix(1 0 0 1 250 240.1207)" style="" id="305255">
		
<path xml:space="preserve" font-family="Lato" font-size="60" font-style="normal" font-weight="bold" style="stroke: none; stroke-width: 1; stroke-dasharray: none; stroke-linecap: butt; stroke-dashoffset: 0; stroke-linejoin: miter; stroke-miterlimit: 4; is-custom-font: none; font-file-url: none; fill: rgb(251,166,176); fill-rule: nonzero; opacity: 1; white-space: pre;" d="M-103.50 8.62L-103.50 8.62Q-102.83 8.62-102.35 9.13L-102.35 9.13L-99.17 12.58Q-101.81 15.85-105.67 17.59Q-109.52 19.33-114.92 19.33L-114.92 19.33Q-119.75 19.33-123.61 17.68Q-127.46 16.03-130.19 13.09Q-132.92 10.15-134.38 6.07Q-135.83 1.99-135.83-2.84L-135.83-2.84Q-135.83-7.73-134.22-11.80Q-132.59-15.86-129.66-18.80Q-126.71-21.74-122.62-23.38Q-118.52-25.01-113.57-25.01L-113.57-25.01Q-108.74-25.01-105.13-23.47Q-101.51-21.92-98.94-19.37L-98.94-19.37L-101.63-15.62Q-101.88-15.26-102.25-14.99Q-102.63-14.72-103.28-14.72L-103.28-14.72Q-103.97-14.72-104.69-15.26Q-105.41-15.80-106.52-16.43Q-107.63-17.06-109.33-17.60Q-111.02-18.14-113.63-18.14L-113.63-18.14Q-116.69-18.14-119.26-17.08Q-121.82-16.01-123.67-14.03Q-125.51-12.05-126.55-9.22Q-127.58-6.38-127.58-2.84L-127.58-2.84Q-127.58 0.82-126.55 3.67Q-125.51 6.52-123.74 8.47Q-121.97 10.42-119.57 11.45Q-117.17 12.49-114.41 12.49L-114.41 12.49Q-112.76 12.49-111.43 12.31Q-110.09 12.13-108.97 11.74Q-107.84 11.35-106.84 10.73Q-105.83 10.12-104.84 9.22L-104.84 9.22Q-104.54 8.95-104.22 8.78Q-103.88 8.62-103.50 8.62ZM-51.48-2.84L-51.48-2.84Q-51.48 1.93-53.07 5.99Q-54.66 10.06-57.54 13.03Q-60.42 16.00-64.47 17.66Q-68.52 19.33-73.44 19.33L-73.44 19.33Q-78.36 19.33-82.42 17.66Q-86.48 16.00-89.38 13.03Q-92.28 10.06-93.87 5.99Q-95.45 1.93-95.45-2.84L-95.45-2.84Q-95.45-7.61-93.87-11.68Q-92.28-15.74-89.38-18.71Q-86.48-21.68-82.42-23.35Q-78.36-25.01-73.44-25.01L-73.44-25.01Q-68.52-25.01-64.47-23.33Q-60.42-21.65-57.54-18.70Q-54.66-15.74-53.07-11.68Q-51.48-7.61-51.48-2.84ZM-59.76-2.84L-59.76-2.84Q-59.76-6.41-60.70-9.25Q-61.65-12.08-63.42-14.06Q-65.19-16.04-67.72-17.09Q-70.26-18.14-73.44-18.14L-73.44-18.14Q-76.62-18.14-79.17-17.09Q-81.72-16.04-83.50-14.06Q-85.28-12.08-86.25-9.25Q-87.20-6.41-87.20-2.84L-87.20-2.84Q-87.20 0.73-86.25 3.56Q-85.28 6.40-83.50 8.36Q-81.72 10.33-79.17 11.38Q-76.62 12.43-73.44 12.43L-73.44 12.43Q-70.26 12.43-67.72 11.38Q-65.19 10.33-63.42 8.36Q-61.65 6.40-60.70 3.56Q-59.76 0.73-59.76-2.84ZM-30.72 3.58L-36.78 3.58L-36.78 18.85L-44.85 18.85L-44.85-24.53L-30.72-24.53Q-26.37-24.53-23.19-23.51Q-20.01-22.49-17.94-20.66Q-15.87-18.83-14.88-16.28Q-13.89-13.73-13.89-10.70L-13.89-10.70Q-13.89-7.55-14.94-4.93Q-15.99-2.30-18.09-0.41Q-20.19 1.48-23.34 2.53Q-26.49 3.58-30.72 3.58L-30.72 3.58ZM-36.78-18.29L-36.78-2.72L-30.72-2.72Q-28.50-2.72-26.85-3.28Q-25.20-3.83-24.12-4.87Q-23.04-5.90-22.50-7.39Q-21.96-8.87-21.96-10.70L-21.96-10.70Q-21.96-12.44-22.50-13.85Q-23.04-15.26-24.12-16.25Q-25.20-17.24-26.85-17.77Q-28.50-18.29-30.72-18.29L-30.72-18.29L-36.78-18.29ZM1.47-24.53L1.47 18.85L-6.63 18.85L-6.63-24.53L1.47-24.53ZM32.31-24.53L49.35 18.85L43.11 18.85Q42.06 18.85 41.39 18.32Q40.71 17.80 40.41 17.02L40.41 17.02L37.17 8.17L19.20 8.17L15.96 17.02Q15.72 17.71 15.02 18.28Q14.31 18.85 13.29 18.85L13.29 18.85L7.02 18.85L24.06-24.53L32.31-24.53ZM26.55-11.90L21.27 2.47L35.10 2.47L29.82-11.96Q29.46-12.92 29.03-14.23Q28.59-15.53 28.17-17.06L28.17-17.06Q27.75-15.53 27.35-14.21Q26.94-12.89 26.55-11.90L26.55-11.90ZM92.34-2.84L92.34-2.84Q92.34 1.93 90.75 5.92Q89.16 9.91 86.28 12.79Q83.41 15.67 79.35 17.26Q75.30 18.85 70.38 18.85L70.38 18.85L53.82 18.85L53.82-24.53L70.38-24.53Q75.30-24.53 79.35-22.93Q83.41-21.32 86.28-18.46Q89.16-15.59 90.75-11.60Q92.34-7.61 92.34-2.84ZM84.09-2.84L84.09-2.84Q84.09-6.41 83.13-9.25Q82.17-12.08 80.40-14.05Q78.63-16.01 76.10-17.06Q73.56-18.11 70.38-18.11L70.38-18.11L61.95-18.11L61.95 12.43L70.38 12.43Q73.56 12.43 76.10 11.38Q78.63 10.33 80.40 8.36Q82.17 6.40 83.13 3.56Q84.09 0.73 84.09-2.84ZM140.28-2.84L140.28-2.84Q140.28 1.93 138.69 5.99Q137.10 10.06 134.22 13.03Q131.34 16.00 127.29 17.66Q123.24 19.33 118.32 19.33L118.32 19.33Q113.40 19.33 109.34 17.66Q105.27 16.00 102.38 13.03Q99.48 10.06 97.89 5.99Q96.30 1.93 96.30-2.84L96.30-2.84Q96.30-7.61 97.89-11.68Q99.48-15.74 102.38-18.71Q105.27-21.68 109.34-23.35Q113.40-25.01 118.32-25.01L118.32-25.01Q123.24-25.01 127.29-23.33Q131.34-21.65 134.22-18.70Q137.10-15.74 138.69-11.68Q140.28-7.61 140.28-2.84ZM132.00-2.84L132.00-2.84Q132.00-6.41 131.06-9.25Q130.11-12.08 128.34-14.06Q126.57-16.04 124.04-17.09Q121.50-18.14 118.32-18.14L118.32-18.14Q115.14-18.14 112.59-17.09Q110.04-16.04 108.26-14.06Q106.47-12.08 105.51-9.25Q104.55-6.41 104.55-2.84L104.55-2.84Q104.55 0.73 105.51 3.56Q106.47 6.40 108.26 8.36Q110.04 10.33 112.59 11.38Q115.14 12.43 118.32 12.43L118.32 12.43Q121.50 12.43 124.04 11.38Q126.57 10.33 128.34 8.36Q130.11 6.40 131.06 3.56Q132.00 0.73 132.00-2.84Z"/></g>
</svg>