<svg xmlns="http://www.w3.org/2000/svg" xmlns:xlink="http://www.w3.org/1999/xlink" version="1.1" width="100" height="100" viewBox="0 0 500 500" xml:space="preserve">
<desc>Created with Fabric.js 3.5.0</desc>
<defs>
</defs>
<rect x="0" y="0" width="100%" height="100%" fill="rgba(22,133,102,0)"/>
<g transform="matrix(1 0 0 1 249.5 285.1663)" id="790669" clip-path="url(#CLIPPATH_0)">
<clipPath id="CLIPPATH_0">
	<rect transform="matrix(1 0 0 1 -0.0001 -0.0005)" id="clip0_302_78" x="-79.5" y="-79.5" rx="0" ry="0" width="159" height="159"/>
</clipPath>
<path style="stroke: none; stroke-width: 0; stroke-dasharray: none; stroke-linecap: butt; stroke-dashoffset: 0; stroke-linejoin: miter; stroke-miterlimit: 4; is-custom-font: none; font-file-url: none; fill: rgb(244,244,250); fill-rule: nonzero; opacity: 1;" vector-effect="non-scaling-stroke" transform=" translate(-79.5001, -79.5005)" d="M 158.004 77.1235 L 81.8028 0.990297 C 80.4947 -0.256857 78.4373 -0.256857 77.1292 0.990297 L 0.996304 77.0555 C 0.980111 77.0714 0.964236 77.0873 0.94836 77.1035 C -0.334353 78.4129 -0.313081 80.5141 0.996304 81.7968 L 77.1971 157.93 C 77.8016 158.558 78.6287 158.923 79.5 158.946 C 80.3836 158.951 81.2345 158.611 81.8708 157.998 L 158.004 81.8644 C 158.02 81.8486 158.036 81.8327 158.052 81.8165 C 159.335 80.5078 159.313 78.4062 158.004 77.1235 Z" stroke-linecap="round"/>
</g>
<g transform="matrix(2.5549 0 0 0.8425 249.4999 237.4864)" id="760312" clip-path="url(#CLIPPATH_1)">
<clipPath id="CLIPPATH_1">
	<rect transform="matrix(1 0 0 1 0.0001 0.0002)" id="clip0_302_100" x="-79" y="-79" rx="0" ry="0" width="158" height="158"/>
</clipPath>
<path style="stroke: none; stroke-width: 0; stroke-dasharray: none; stroke-linecap: butt; stroke-dashoffset: 0; stroke-linejoin: miter; stroke-miterlimit: 4; is-custom-font: none; font-file-url: none; fill: rgb(244,244,250); fill-rule: nonzero; opacity: 1;" vector-effect="non-scaling-stroke" transform=" translate(-78.9999, -78.9998)" d="M 154.685 0.000367219 H 3.31409 C 1.48378 0.000367219 0 1.48415 0 3.31478 V 154.686 C 0 156.516 1.48378 158 3.31409 158 H 154.685 C 156.515 158 157.999 156.516 157.999 154.686 V 3.31478 C 158 3.26912 158 3.22347 157.999 3.17813 C 157.962 1.38523 156.478 -0.0373614 154.685 0.000367219 Z" stroke-linecap="round"/>
</g>
<g transform="matrix(1 0 0 1 250 239.9058)" style="" id="809689">
		
<path xml:space="preserve" font-family="Lato" font-size="45" font-style="normal" font-weight="bold" style="stroke: none; stroke-width: 0; stroke-dasharray: none; stroke-linecap: butt; stroke-dashoffset: 0; stroke-linejoin: miter; stroke-miterlimit: 4; is-custom-font: none; font-file-url: none; fill: rgb(117,104,168); fill-rule: nonzero; opacity: 1; white-space: pre;" d="M-168.32-18.40L-168.32-18.40Q-167.92-18.40-167.65-18.36Q-167.38-18.33-167.16-18.23Q-166.95-18.13-166.75-17.94Q-166.55-17.75-166.30-17.43L-166.30-17.43L-149.22 4.33Q-149.31 3.54-149.34 2.79Q-149.38 2.03-149.38 1.38L-149.38 1.38L-149.38-18.40L-144.05-18.40L-144.05 14.14L-147.17 14.14Q-147.89 14.14-148.37 13.91Q-148.84 13.69-149.29 13.10L-149.29 13.10L-166.30-8.57Q-166.23-7.85-166.20-7.14Q-166.16-6.43-166.16-5.84L-166.16-5.84L-166.16 14.14L-171.50 14.14L-171.50-18.40L-168.32-18.40ZM-121.66-18.40L-108.88 14.14L-113.56 14.14Q-114.34 14.14-114.85 13.74Q-115.36 13.35-115.58 12.76L-115.58 12.76L-118.01 6.13L-131.49 6.13L-133.92 12.76Q-134.10 13.28-134.63 13.71Q-135.16 14.14-135.92 14.14L-135.92 14.14L-140.63 14.14L-127.84-18.40L-121.66-18.40ZM-125.98-8.93L-129.94 1.85L-119.56 1.85L-123.52-8.97Q-123.79-9.69-124.12-10.67Q-124.45-11.65-124.76-12.80L-124.76-12.80Q-125.08-11.65-125.38-10.66Q-125.68-9.67-125.98-8.93L-125.98-8.93ZM-76.63-2.13L-76.63-2.13Q-76.63 1.45-77.83 4.44Q-79.02 7.43-81.18 9.59Q-83.34 11.75-86.38 12.94Q-89.41 14.14-93.10 14.14L-93.10 14.14L-105.52 14.14L-105.52-18.40L-93.10-18.40Q-89.41-18.40-86.38-17.19Q-83.34-15.99-81.18-13.84Q-79.02-11.69-77.83-8.70Q-76.63-5.71-76.63-2.13ZM-82.82-2.13L-82.82-2.13Q-82.82-4.81-83.54-6.93Q-84.26-9.06-85.59-10.53Q-86.92-12.01-88.82-12.80Q-90.72-13.58-93.10-13.58L-93.10-13.58L-99.43-13.58L-99.43 9.32L-93.10 9.32Q-90.72 9.32-88.82 8.53Q-86.92 7.75-85.59 6.27Q-84.26 4.80-83.54 2.67Q-82.82 0.55-82.82-2.13ZM-57.22-18.40L-44.44 14.14L-49.12 14.14Q-49.90 14.14-50.41 13.74Q-50.92 13.35-51.14 12.76L-51.14 12.76L-53.57 6.13L-67.05 6.13L-69.48 12.76Q-69.66 13.28-70.19 13.71Q-70.72 14.14-71.48 14.14L-71.48 14.14L-76.18 14.14L-63.40-18.40L-57.22-18.40ZM-61.54-8.93L-65.50 1.85L-55.12 1.85L-59.08-8.97Q-59.35-9.69-59.68-10.67Q-60.01-11.65-60.32-12.80L-60.32-12.80Q-60.64-11.65-60.94-10.66Q-61.24-9.67-61.54-8.93L-61.54-8.93ZM-16.58-18.40L-3.80 14.14L-8.48 14.14Q-9.27 14.14-9.78 13.74Q-10.28 13.35-10.51 12.76L-10.51 12.76L-12.94 6.13L-26.41 6.13L-28.84 12.76Q-29.02 13.28-29.55 13.71Q-30.08 14.14-30.85 14.14L-30.85 14.14L-35.55 14.14L-22.77-18.40L-16.58-18.40ZM-20.90-8.93L-24.86 1.85L-14.49 1.85L-18.45-8.97Q-18.72-9.69-19.05-10.67Q-19.37-11.65-19.69-12.80L-19.69-12.80Q-20.00-11.65-20.31-10.66Q-20.61-9.67-20.90-8.93L-20.90-8.93ZM30.60 6.46L30.60 6.46Q31.10 6.46 31.46 6.85L31.46 6.85L33.84 9.43Q31.86 11.89 28.97 13.19Q26.08 14.50 22.03 14.50L22.03 14.50Q18.41 14.50 15.51 13.26Q12.62 12.02 10.58 9.82Q8.53 7.61 7.44 4.55Q6.35 1.49 6.35-2.13L6.35-2.13Q6.35-5.80 7.56-8.85Q8.78-11.90 10.98-14.10Q13.19-16.31 16.26-17.53Q19.33-18.76 23.04-18.76L23.04-18.76Q26.66-18.76 29.37-17.60Q32.09-16.44 34.02-14.53L34.02-14.53L32.00-11.72Q31.82-11.45 31.53-11.24Q31.25-11.04 30.76-11.04L30.76-11.04Q30.24-11.04 29.70-11.45Q29.16-11.85 28.33-12.32Q27.50-12.80 26.22-13.20Q24.95-13.61 23.00-13.61L23.00-13.61Q20.70-13.61 18.78-12.81Q16.85-12.01 15.47-10.52Q14.09-9.04 13.31-6.91Q12.53-4.79 12.53-2.13L12.53-2.13Q12.53 0.61 13.31 2.75Q14.09 4.89 15.41 6.35Q16.74 7.81 18.54 8.59Q20.34 9.37 22.41 9.37L22.41 9.37Q23.65 9.37 24.65 9.23Q25.65 9.10 26.49 8.80Q27.34 8.51 28.09 8.05Q28.85 7.59 29.59 6.91L29.59 6.91Q29.81 6.71 30.06 6.59Q30.31 6.46 30.60 6.46ZM69.62-2.13L69.62-2.13Q69.62 1.45 68.42 4.50Q67.23 7.54 65.07 9.77Q62.91 12.00 59.87 13.25Q56.84 14.50 53.15 14.50L53.15 14.50Q49.46 14.50 46.41 13.25Q43.36 12.00 41.19 9.77Q39.02 7.54 37.82 4.50Q36.63 1.45 36.63-2.13L36.63-2.13Q36.63-5.71 37.82-8.76Q39.02-11.81 41.19-14.03Q43.36-16.26 46.41-17.51Q49.46-18.76 53.15-18.76L53.15-18.76Q56.84-18.76 59.87-17.50Q62.91-16.24 65.07-14.02Q67.23-11.81 68.42-8.76Q69.62-5.71 69.62-2.13ZM63.41-2.13L63.41-2.13Q63.41-4.81 62.70-6.93Q61.99-9.06 60.66-10.55Q59.33-12.03 57.43-12.82Q55.53-13.61 53.15-13.61L53.15-13.61Q50.76-13.61 48.85-12.82Q46.94-12.03 45.60-10.55Q44.26-9.06 43.54-6.93Q42.82-4.81 42.82-2.13L42.82-2.13Q42.82 0.55 43.54 2.67Q44.26 4.80 45.60 6.27Q46.94 7.75 48.85 8.53Q50.76 9.32 53.15 9.32L53.15 9.32Q55.53 9.32 57.43 8.53Q59.33 7.75 60.66 6.27Q61.99 4.80 62.70 2.67Q63.41 0.55 63.41-2.13ZM85.19 2.68L80.64 2.68L80.64 14.14L74.59 14.14L74.59-18.40L85.19-18.40Q88.45-18.40 90.83-17.63Q93.22-16.87 94.77-15.50Q96.32-14.12 97.07-12.21Q97.81-10.30 97.81-8.03L97.81-8.03Q97.81-5.66 97.02-3.69Q96.23-1.73 94.66-0.31Q93.08 1.11 90.72 1.90Q88.36 2.68 85.19 2.68L85.19 2.68ZM80.64-13.72L80.64-2.04L85.19-2.04Q86.85-2.04 88.09-2.46Q89.33-2.87 90.14-3.65Q90.95-4.43 91.35-5.54Q91.76-6.65 91.76-8.03L91.76-8.03Q91.76-9.33 91.35-10.39Q90.95-11.45 90.14-12.19Q89.33-12.93 88.09-13.32Q86.85-13.72 85.19-13.72L85.19-13.72L80.64-13.72ZM109.33-18.40L109.33 14.14L103.25 14.14L103.25-18.40L109.33-18.40ZM132.46-18.40L145.24 14.14L140.56 14.14Q139.77 14.14 139.26 13.74Q138.76 13.35 138.53 12.76L138.53 12.76L136.10 6.13L122.63 6.13L120.20 12.76Q120.02 13.28 119.49 13.71Q118.96 14.14 118.19 14.14L118.19 14.14L113.49 14.14L126.27-18.40L132.46-18.40ZM128.14-8.93L124.18 1.85L134.55 1.85L130.59-8.97Q130.32-9.69 129.99-10.67Q129.67-11.65 129.35-12.80L129.35-12.80Q129.04-11.65 128.73-10.66Q128.43-9.67 128.14-8.93L128.14-8.93ZM157.43 1.42L154.84 1.42L154.84 14.14L148.79 14.14L148.79-18.40L158.72-18.40Q162.05-18.40 164.42-17.71Q166.79-17.03 168.31-15.79Q169.83-14.55 170.54-12.83Q171.25-11.11 171.25-9.04L171.25-9.04Q171.25-7.40 170.76-5.93Q170.28-4.47 169.37-3.28Q168.46-2.09 167.12-1.19Q165.78-0.29 164.07 0.25L164.07 0.25Q165.22 0.91 166.05 2.12L166.05 2.12L174.19 14.14L168.75 14.14Q167.96 14.14 167.41 13.82Q166.86 13.51 166.48 12.92L166.48 12.92L159.64 2.50Q159.25 1.92 158.79 1.67Q158.33 1.42 157.43 1.42L157.43 1.42ZM154.84-13.72L154.84-2.92L158.63-2.92Q160.34-2.92 161.61-3.35Q162.88-3.77 163.70-4.53Q164.52-5.28 164.93-6.32Q165.33-7.35 165.33-8.59L165.33-8.59Q165.33-11.06 163.70-12.39Q162.07-13.72 158.72-13.72L158.72-13.72L154.84-13.72Z"/></g>
</svg>